<svg version="1.2" xmlns="http://www.w3.org/2000/svg" viewBox="0 0 2400 2400" width="2400" height="2400"><defs><filter x="-50%" y="-50%" width="200%" height="200%" id="f1" ><feDropShadow dx="23.590725298396414" dy="52.98563654327085" stdDeviation="13.333333333333334" flood-color="#000000" flood-opacity="1"/></filter><filter x="-50%" y="-50%" width="200%" height="200%" id="f2" ><feDropShadow dx="23.590725298396414" dy="52.98563654327085" stdDeviation="13.333333333333334" flood-color="#000000" flood-opacity="1"/></filter><filter x="-50%" y="-50%" width="200%" height="200%" id="f3" ><feDropShadow dx="23.590725298396414" dy="52.98563654327085" stdDeviation="13.333333333333334" flood-color="#000000" flood-opacity="1"/></filter><filter x="-50%" y="-50%" width="200%" height="200%" id="f4" ><feDropShadow dx="23.590725298396414" dy="52.98563654327085" stdDeviation="13.333333333333334" flood-color="#000000" flood-opacity="1"/></filter></defs><style>.a{filter:url(#f1);fill:none;stroke:#fff;paint-order:stroke fill markers;stroke-linecap:round;stroke-linejoin:round;stroke-width:90}.b{filter:url(#f2);fill:none;stroke:#fff;paint-order:stroke fill markers;stroke-linecap:round;stroke-linejoin:round;stroke-width:90}.c{filter:url(#f3);fill:none;stroke:#fff;paint-order:stroke fill markers;stroke-linecap:round;stroke-linejoin:round;stroke-width:90}.d{filter:url(#f4);fill:none;stroke:#fff;paint-order:stroke fill markers;stroke-linecap:round;stroke-linejoin:round;stroke-width:90}</style><path fill-rule="evenodd" class="a" d="m2141 788.3c-158.8-363.4-521.4-617.3-943.3-617.3-533.4 0-972.1 406-1023.7 925.9"/><path fill-rule="evenodd" class="b" d="m1712.2 788.3h452.6c34.1 0 61.8-27.6 61.8-61.7v-452.7"/><path fill-rule="evenodd" class="c" d="m259.6 1611.4c158.8 363.3 521.3 617.2 943.2 617.2 533.5 0 972.2-406 1023.8-925.9"/><path fill-rule="evenodd" class="d" d="m688.4 1611.4h-452.7c-34.1 0-61.7 27.6-61.7 61.7v452.7"/></svg>